Coordinates
version=1
nRows=19
nColumns=33
inDegrees=yes

Units are S.I. units (second, meters, Newtons, ...)
Angles are in degrees.

endheader
time	ground_thorax_rot_x	ground_thorax_rot_y	ground_thorax_rot_z	ground_thorax_tx	ground_thorax_ty	ground_thorax_tz	clav_prot_r	clav_elev_r	scapula_abduction_r	scapula_elevation_r	scapula_upward_rot_r	scapula_winging_r	shoulder_elv_r	plane_of_elev_r	axial_rot_r	elbow_flexion_r	pro_sup_r	wrist_flex_r	wrist_dev_r	clav_prot_l	clav_elev_l	scapula_abduction_l	scapula_elevation_l	scapula_upward_rot_l	scapula_winging_l	shoulder_elv_l	plane_of_elev_l	axial_rot_l	elbow_flexion_l	pro_sup_l	wrist_flex_l	wrist_dev_l
      6.64000000	     38.49040925	      6.71910676	     17.89307613	   -229.35681140	    837.97178799	     -6.60708256	      7.96766464	     43.68238663	     37.54749832	     45.00000000	    -11.93937175	   2055.41307745	  -2460.87928121	     18.02860286	   -179.99999979	   1085.31342803	    -90.47787762	     18.54120637	     10.80984731	     11.50613087	    -45.00000000	    -32.82017229	     45.00000000	    -45.00000000	  -1340.17932147	  -1177.93207229	    147.78482470	    130.68855182	      9.35037056	    392.21000437	     10.25646543	    -22.14774308
      6.65000000	     38.85151824	      5.59795311	     16.27450746	   -230.62556319	    839.99493565	     -6.70916458	      6.83878423	     42.63303346	     38.47450259	     45.00000000	     -9.64816951	   2054.25754997	  -2460.93442363	     17.74307301	   -179.99999979	   1085.63371668	    -90.65832542	     18.96968518	     10.74895375	     11.30557487	    -45.00000000	    -33.50728816	     45.00000000	    -45.00000000	  -1339.88576543	  -1178.40021312	    146.90562286	    130.52808605	      9.43196922	    392.08510718	      9.76100333	    -22.23842222
      6.66000000	     38.89858305	      6.19766640	     16.77182219	   -231.62950236	    841.92585451	     -6.80051696	      6.75436093	     43.94705268	     38.44420501	     45.00000000	     -8.91265158	   2053.70228248	  -2460.34717704	     17.73439416	   -179.99999979	   1085.75485451	    -90.54833389	     18.31697202	     10.89515780	     11.51767819	    -45.00000000	    -32.87846232	     45.00000000	    -45.00000000	  -1340.28080689	  -1177.95088878	    147.70861790	    130.85513119	      9.42801285	    392.12056401	     10.10819253	    -22.25126516
      6.67000000	     38.98628755	      6.01514832	     16.42623928	   -232.38713703	    843.75366763	     -6.88042525	      6.58906481	     43.88511316	     38.85617843	     45.00000000	     -8.10418467	   2053.21188859	  -2460.16927369	     17.62092443	   -179.99999979	   1085.90671988	    -90.50998005	     18.48472955	     10.85704285	     11.50224470	    -45.00000000	    -32.94543836	     45.00000000	    -45.00000000	  -1340.08969923	  -1177.93907322	    147.57148030	    131.16906359	      9.37479653	    392.11088118	      9.84454401	    -22.21836173
      6.68000000	     39.09781881	      5.86113102	     16.05133410	   -232.91337686	    845.48381810	     -6.94205231	      6.43804610	     43.96915354	     39.10161113	     45.00000000	     -7.45203509	   2052.85719530	  -2460.08037032	     17.59598054	   -179.99999979	   1085.96715511	    -90.43954107	     18.50427402	     10.87720394	     11.58892952	    -45.00000000	    -33.05121104	     45.00000000	    -45.00000000	  -1340.05913058	  -1177.83310675	    147.52702727	    131.17983550	      9.52548896	    392.20697775	      9.82936983	    -22.26851714
      6.69000000	     39.22185495	      5.71224328	     15.68035936	   -233.22049781	    847.11872863	     -6.98104455	      6.31112411	     44.03067136	     39.39661163	     45.00000000	     -6.75133505	   2052.45210637	  -2459.93473323	     17.56457228	   -179.99999979	   1086.03108804	    -90.34104477	     18.52324498	     10.88720581	     11.62653916	    -45.00000000	    -33.14836910	     45.00000000	    -45.00000000	  -1340.06942816	  -1177.75149275	    147.46406652	    131.25123517	      9.61403904	    392.35265335	      9.76122880	    -22.30295173
      6.70000000	     39.29855234	      5.67451150	     15.41928077	   -233.32178944	    848.66511175	     -6.99705446	      6.07157886	     43.99701435	     39.40218709	     45.00000000	     -6.27086082	   2052.38250777	  -2459.82537738	     17.53313938	   -179.99999979	   1086.01604604	    -90.22338854	     18.58997055	     10.88063294	     11.76964232	    -45.00000000	    -33.33111113	     45.00000000	    -45.00000000	  -1340.00312290	  -1177.67010464	    147.39717439	    131.28630630	      9.71995844	    392.55769369	      9.69116849	    -22.33171862
      6.71000000	     39.34234981	      5.65410286	     15.25509181	   -233.23011732	    850.12894924	     -6.99361969	      5.89655111	     43.98362266	     39.27936689	     45.00000000	     -6.00912425	   2052.49495614	  -2459.76079570	     17.56681770	   -179.99999979	   1085.93752125	    -90.12368553	     18.68306716	     10.86184093	     11.94093671	    -45.00000000	    -33.51457406	     45.00000000	    -45.00000000	  -1339.90161852	  -1177.60597632	    147.36685612	    131.26312531	      9.78190930	    392.81955903	      9.60962978	    -22.34541684
      6.72000000	     39.36665022	      5.70084931	     15.21484995	   -232.95859421	    851.51905500	     -6.97752154	      5.72047400	     44.00374603	     39.32247033	     45.00000000	     -5.88666638	   2052.57056388	  -2459.67138870	     17.53080467	   -179.99999979	   1085.88210803	    -90.02705884	     18.73077655	     10.85695882	     12.11871240	    -45.00000000	    -33.68734808	     45.00000000	    -45.00000000	  -1339.82519304	  -1177.47003572	    147.37976747	    131.16207270	      9.93236332	    393.14150952	      9.53343774	    -22.38904621
      6.73000000	     39.43924967	      5.70305631	     15.00704796	   -232.52240576	    852.83820928	     -6.95759289	      5.62843906	     43.93400240	     39.17657276	     45.00000000	     -5.50671571	   2052.64361914	  -2459.58272837	     17.57495352	   -179.99999979	   1085.84997367	    -89.92199845	     18.83134061	     10.87171607	     12.23730151	    -45.00000000	    -33.87431233	     45.00000000	    -45.00000000	  -1339.77334602	  -1177.44427242	    147.27405177	    131.17299702	      9.96675802	    393.47089969	      9.40174808	    -22.36603286
      6.74000000	     39.67106470	      5.22607758	     14.48205589	   -231.93755947	    854.09562647	     -6.94297331	      6.03982931	     44.18963226	     40.55654567	     45.00000000	     -4.67404962	   2051.10868650	  -2459.57350747	     17.82726342	   -179.99999979	   1086.09814597	    -89.53013352	     18.73425679	     10.99444433	     11.87223242	    -45.00000000	    -33.55646480	     45.00000000	    -45.00000000	  -1340.06541679	  -1177.14284213	    147.18753682	    130.89399240	     10.33083219	    394.05998928	      9.32318010	    -22.49155988
      6.75000000	     39.70019166	      5.21916220	     14.25048200	   -231.22170783	    855.29774249	     -6.94124968	      5.65334778	     44.17024538	     40.61091650	     45.00000000	     -4.20053906	   2050.98232938	  -2459.50024478	     17.81072662	   -179.99999979	   1086.05836009	    -88.96712624	     18.86753321	     11.00180242	     12.15218814	    -45.00000000	    -33.84243196	     45.00000000	    -45.00000000	  -1340.10337787	  -1177.00323736	    147.08794131	    131.18715520	     10.54471642	    394.49515262	      9.28234672	    -22.59227490
      6.76000000	     39.78600565	      5.07051625	     14.02497101	   -230.39440826	    856.45124608	     -6.95688608	      5.61360086	     44.16773528	     40.97960542	     45.00000000	     -3.53153138	   2050.59793020	  -2459.35778935	     17.84315440	   -179.99999979	   1086.10071534	    -88.18884493	     18.95230880	     11.02629219	     12.13029828	    -45.00000000	    -33.88813853	     45.00000000	    -45.00000000	  -1340.18318332	  -1176.94920382	    146.98149312	    131.29906709	     10.58340845	    394.97200344	      9.14827009	    -22.58776365
      6.77000000	     39.84039026	      4.93083519	     13.79685328	   -229.47376606	    857.56543680	     -6.98981640	      5.45766415	     44.18025036	     41.30998633	     45.00000000	     -2.90551388	   2050.24026080	  -2459.24552148	     17.85831727	   -179.99999979	   1086.10808404	    -87.19885402	     19.08659850	     11.03115739	     12.19877942	    -45.00000000	    -34.02189110	     45.00000000	    -45.00000000	  -1340.25171939	  -1176.81014868	    146.85578666	    131.50238575	     10.74573357	    395.41588547	      9.03708783	    -22.63949387
      6.78000000	     40.13382191	      4.08068721	     12.80196825	   -228.48325356	    858.64404847	     -7.03533610	      5.24854242	     44.34793738	     42.91355996	     45.00000000	      1.40550051	   2048.46325908	  -2457.92497741	     17.09275959	   -179.99999979	   1086.51459212	    -83.89605469	     18.76655545	     11.06144090	     11.15395071	    -45.00000000	    -33.82163587	     45.00000000	    -45.00000000	  -1340.70999681	  -1176.83192006	    146.49580918	    132.32442837	     10.95872861	    396.30222895	      8.48338280	    -22.47604257
      6.79000000	     39.97656945	      4.40272751	     13.07681253	   -227.43777122	    859.70419672	     -7.08654131	      4.89101910	     44.27276518	     42.53442785	     45.00000000	     -0.17082124	   2048.78362080	  -2458.63996321	     17.64692480	   -179.99999979	   1086.21676403	    -82.22971063	     19.32494613	     10.86363298	     12.17795714	    -45.00000000	    -34.24278869	     45.00000000	    -45.00000000	  -1340.53621248	  -1176.67852103	    146.47301165	    132.50960774	     11.01457320	    396.74624548	      8.69480832	    -22.70252101
      6.80000000	     40.00660105	      4.36889965	     13.02342290	   -226.35256742	    860.75889498	     -7.13586198	      4.81386758	     44.21397393	     42.58328997	     45.00000000	      0.03713932	   2048.75235296	  -2458.58847149	     17.75938496	   -179.99999979	   1086.12550756	    -80.72156699	     19.58378008	     10.77374418	     12.23698392	    -45.00000000	    -34.36761050	     45.00000000	    -45.00000000	  -1340.54260968	  -1176.50999937	    146.34599314	    132.57308864	     11.15378376	    397.20788627	      8.56155989	    -22.74065706
      6.81000000	     40.01556784	      4.19858607	     12.87492793	   -225.24148859	    861.82086225	     -7.17805341	      4.72940476	     44.18320367	     42.96574169	     45.00000000	      0.65044885	   2048.39759634	  -2458.48828856	     17.80417380	   -179.99999979	   1086.14877955	    -79.09874194	     19.75753114	     10.71165287	     12.27789918	    -45.00000000	    -34.48195065	     45.00000000	    -45.00000000	  -1340.63639287	  -1176.46190502	    146.24500263	    132.78654826	     11.26549946	    397.75638285	      8.43007483	    -22.77764357
      6.82000000	     40.02442089	      4.08245093	     12.71086734	   -224.11558003	    862.90297502	     -7.21165647	      4.52184514	     44.17866947	     43.32648197	     45.00000000	      1.40312045	   2048.07057642	  -2458.23024783	     17.72263058	   -179.99999979	   1086.12352842	    -77.43312875	     19.92307146	     10.62248731	     12.29095373	    -45.00000000	    -34.57397684	     45.00000000	    -45.00000000	  -1340.64150700	  -1176.24469193	    146.02343239	    133.20877217	     11.48595222	    398.33012819	      8.25281745	    -22.81843273
